<svg width="40" height="40" viewBox="0 0 40 40" fill="none" xmlns="http://www.w3.org/2000/svg">
  <!-- Background circle -->
  <circle cx="20" cy="20" r="19" fill="none" stroke="url(#gradient1)" stroke-width="1.5"/>
  <circle cx="20" cy="20" r="17" fill="none" stroke="url(#gradient1)" stroke-width="1.5"/>
  
  <!-- Flowing abstract shapes -->
  <path d="M5 25 Q15 15 20 20 Q25 25 35 15" stroke="url(#gradient2)" stroke-width="3" fill="none" stroke-linecap="round"/>
  <path d="M8 28 Q18 18 20 22 Q22 26 32 18" stroke="url(#gradient3)" stroke-width="2" fill="none" stroke-linecap="round" opacity="0.7"/>
  
  <!-- Cloud elements -->
  <ellipse cx="12" cy="28" rx="4" ry="2" fill="url(#gradient4)" opacity="0.6"/>
  <ellipse cx="28" cy="12" rx="3" ry="1.5" fill="url(#gradient4)" opacity="0.4"/>
  
  <!-- Central letter M -->
  <path d="M15 25 L18 15 L20 20 L22 15 L25 25" stroke="url(#gradient5)" stroke-width="2.5" fill="none" stroke-linecap="round" stroke-linejoin="round"/>
  <path d="M15 25 L18 15 L20 20 L22 15 L25 25" stroke="url(#gradient6)" stroke-width="1.5" fill="none" stroke-linecap="round" stroke-linejoin="round" opacity="0.8"/>
  
  <!-- Gradients -->
  <defs>
    <linearGradient id="gradient1" x1="0%" y1="0%" x2="100%" y2="100%">
      <stop offset="0%" style="stop-color:#E2E8F0;stop-opacity:1" />
      <stop offset="100%" style="stop-color:#CBD5E1;stop-opacity:1" />
    </linearGradient>
    <linearGradient id="gradient2" x1="0%" y1="0%" x2="100%" y2="0%">
      <stop offset="0%" style="stop-color:#1E40AF;stop-opacity:1" />
      <stop offset="50%" style="stop-color:#3B82F6;stop-opacity:1" />
      <stop offset="100%" style="stop-color:#E2E8F0;stop-opacity:1" />
    </linearGradient>
    <linearGradient id="gradient3" x1="0%" y1="0%" x2="100%" y2="0%">
      <stop offset="0%" style="stop-color:#1E3A8A;stop-opacity:1" />
      <stop offset="50%" style="stop-color:#60A5FA;stop-opacity:1" />
      <stop offset="100%" style="stop-color:#F1F5F9;stop-opacity:1" />
    </linearGradient>
    <linearGradient id="gradient4" x1="0%" y1="0%" x2="100%" y2="0%">
      <stop offset="0%" style="stop-color:#94A3B8;stop-opacity:1" />
      <stop offset="100%" style="stop-color:#E2E8F0;stop-opacity:1" />
    </linearGradient>
    <linearGradient id="gradient5" x1="0%" y1="0%" x2="100%" y2="0%">
      <stop offset="0%" style="stop-color:#1E293B;stop-opacity:1" />
      <stop offset="100%" style="stop-color:#475569;stop-opacity:1" />
    </linearGradient>
    <linearGradient id="gradient6" x1="0%" y1="0%" x2="100%" y2="0%">
      <stop offset="0%" style="stop-color:#475569;stop-opacity:1" />
      <stop offset="100%" style="stop-color:#94A3B8;stop-opacity:1" />
    </linearGradient>
  </defs>
</svg>
